<svg xmlns="http://www.w3.org/2000/svg" xmlns:xlink="http://www.w3.org/1999/xlink" id="Layer_1" width="800" height="600" x="0" y="0" baseProfile="tiny" version="1.2" viewBox="0 0 800 600" xml:space="preserve"><switch><g><g><g><ellipse cx="401.671" cy="510.042" fill="#ADCCDB" rx="259.824" ry="12.009"/></g></g><g><g><g><path fill="#FDDCBE" d="M276.878,242.242c69.703-15.389,84.419-68.365,84.896-71.11c0.607-3.519,2.383-10.521,5.632-9.535 c1.65,0.502,2.196,1.702,1.99,3.951c0.586-1.409,1.366-2.873,2.943-2.73c1.405,0.122,2.451,2.662,2.348,4.263 c-0.026,0.14-0.054,0.282-0.054,0.417c0-0.135,0.028-0.277,0.054-0.417c0.265-1.357,1.797-2.836,3.086-2.72 c1.693,0.135,2.16,2.403,1.96,4.073c0.578-1.414,1.434-2.414,2.999-2.28c3.294,0.283,1.559,6.507,0.494,10.209 c-0.854,2.96-23.384,68.078-101.354,84.062L276.878,242.242z"/></g></g><g><g><path fill="#E6E7E8" d="M276.878,242.242l4.993,18.184c25.618-5.252,45.25-15.808,60.096-27.721 c-8.266-1.093-17.655-2.893-25.454-5.848C305.844,233.248,292.8,238.727,276.878,242.242z"/></g></g><g><g><g><g><g><path fill="#F5F5F5" d="M200.331,360.488l104.96-135.139c21.299,16.696,44.351,22.064,54.512,23.704 c14.209,29.616,25.856,124.035,14.638,152.387C315.075,409.271,262.372,410.937,200.331,360.488z"/></g></g></g><g><g><path fill="#3D3429" d="M374.441,401.44l34.299-2.578l20.688,41.883c0,0,61.906-1.086,39.605-17.96 c-23.575-17.838-35.158,5.611-35.158,5.611l-13.889-43.175l-33.883-4.762c0,0,1.881-61.686-12.75-113.942l36.157-9.054 l40.89,19.186c0,0,46.944-23.281,20.075-31.404c-21.752-6.577-23.679,21.091-23.679,21.091l-32.575-22.654l-54.419,5.372 L374.441,401.44z"/></g></g><g><g><path fill="#CCC" d="M374.68,271.45l-72.021,10.182l-4.618-9.835l-8.081,0.037l-8.164,16.26l4.186,6.314l12.146-1.737 l83.577,15.058C380.041,295.818,377.776,283.45,374.68,271.45z"/></g></g><g><path fill="#E6E7E8" d="M253.188,383.422c6.746,5.604,13.313,10.919,19.67,15.952 c13.817,3.754,27.471,5.555,41.187,6.056c-15.28-10.657-32.341-23.22-49.785-37.272c-8.064-6.497-16.21-13.312-24.299-20.404 l-6.743,15.687C241.598,370.839,245.228,376.808,253.188,383.422z"/></g><g><g><polygon fill="#3D3429" points="289.96 271.833 298.042 271.797 302.66 281.632 384.155 261.682 406.928 284.011 383.457 302.974 298.128 292.67 285.982 294.407 281.797 288.094"/></g></g><g><g><g><path fill="#FDDCBE" d="M305.291,225.35c0,0-129.931-129.359-173.775,19.828c0,0-2.88,55.95,68.814,115.311 C291.446,289.955,305.291,225.35,305.291,225.35z"/></g></g><g><g><path fill="#3D3429" d="M182.038,97.215c0,0,90.263,74.905-24.06,162.973l25.53,33.346c0,0-20.539,2.951-10.621,16.95 c9.923,14.009,17.427-6.353,17.427-6.353s14.529,33.418,10.017,56.357c1.513,0.313-164.14-77.955-100.349-118.049 c0,0-18.47-29.086,9.767-66.197C139.014,137.776,197.243,160.66,182.038,97.215z"/></g></g></g></g><g><g><polygon fill="#3D3429" points="239.875 195.759 239.007 232.079 268.655 219.067 266.104 211.174 246.114 221.211 247.46 197.804"/></g></g><g><g><polygon fill="#3D3429" points="222.08 289.672 223.091 253.359 193.39 266.253 195.907 274.156 215.935 264.191 214.502 287.593"/></g></g><g><g><path fill="#EB7D86" d="M275.462,244.528c0,0-9.23,18.289-25.176,39.442c0,0-16.054-12.291-3.929-31.286 C259.718,231.753,275.462,244.528,275.462,244.528z"/></g></g><g><g><g><path fill="#F5F5F5" d="M225.843,359.727l14.118-11.974c6.434,8.622,12.981,16.984,19.515,25.02l-14.009,12.623 C239.058,377.268,232.498,368.709,225.843,359.727z"/></g></g><g><g><path fill="#FDDCBE" d="M259.475,372.772c45.037,55.381,98.982,44.756,101.649,43.95c3.417-1.037,10.471-2.593,11.048,0.752 c0.292,1.7-0.535,2.727-2.638,3.553c1.522-0.109,3.181-0.069,3.761,1.404c0.521,1.31-1.279,3.384-2.756,4.011 c-0.137,0.04-0.276,0.079-0.396,0.14c0.12-0.061,0.26-0.1,0.396-0.14c1.332-0.371,3.341,0.334,3.815,1.537 c0.639,1.574-1.178,3.009-2.76,3.58c1.523-0.118,2.8,0.198,3.383,1.656c1.225,3.07-5.115,4.313-8.902,5.023 c-3.029,0.565-71.332,9.657-120.61-52.844L259.475,372.772z"/></g></g></g></g></g><g><g><g><path fill="#F5E47B" d="M667.067,336.572c-1.396,4.575-24.294,18.529-45.884,5.526c-16.73-10.075-24.263-0.792-23.854,0.462 c0.408,1.253,6.779,12.136,17.594,16.981c10.175,4.56,31.3,12.009,55.159-4.872L667.067,336.572z"/></g><g><path fill="#F5E47B" d="M685.098,347.545c-2.844,3.293-2.471,27.684,18.01,37.989c15.87,7.985,12.381,18.285,11.218,18.579 c-1.163,0.293-12.628,0.671-21.604-5.3c-8.445-5.618-24.426-18.26-23.013-44.81L685.098,347.545z"/></g><g><g><path fill="#E7D773" d="M685.098,347.545l-15.389,6.459c-0.579,10.872,1.762,19.41,5.305,26.09 c3.592-3.121,7.756-7.453,11.358-13.196C682.916,357.944,683.496,349.399,685.098,347.545z"/></g></g><g><g><path fill="#E7D773" d="M662.952,340.78c-3.977,10.961-9.462,18.57-13.79,23.329c6.561-1.387,13.611-4.268,20.921-9.439 l-3.016-18.098C666.746,337.626,665.274,339.177,662.952,340.78z"/></g></g><g><path fill="#FFDE17" d="M606.961,404.088c-1.764-2.999,2.279-16.916,14.324-22.123s35.391-14.948,42.013-36.327 s20.011-25.099,20.011-25.099l6.574,1.896c2.786,4.169,4.511,35.057-23.333,58.354 C642.202,401.16,608.725,407.087,606.961,404.088z"/></g><g><polygon fill="#82470C" points="683.309 320.539 683.734 312.025 693.781 313.443 689.883 322.435"/></g><g><g><path fill="#F0D215" d="M686.924,321.582c-8.413,53.847-52.051,72.615-80.242,79.136c-0.197,1.505-0.108,2.711,0.279,3.37 c1.764,2.999,35.241-2.928,59.589-23.3c27.844-23.297,26.119-54.185,23.333-58.354L686.924,321.582z"/></g></g></g><g><path fill="#ADCCDB" d="M559.947,404.819c-0.457,0-0.87-0.315-0.975-0.78c-0.121-0.539,0.218-1.074,0.756-1.195 c0.223-0.05,22.394-5.097,39.772-14.174c0.487-0.255,1.094-0.066,1.35,0.424c0.255,0.489,0.065,1.094-0.424,1.35 c-17.615,9.2-40.035,14.301-40.259,14.352C560.094,404.812,560.02,404.819,559.947,404.819z"/></g><g><path fill="#ADCCDB" d="M539.909,426.741c-0.492,0-0.92-0.362-0.989-0.863c-0.076-0.547,0.306-1.052,0.854-1.127 c0.308-0.043,31.136-4.398,56.248-15.459c0.508-0.223,1.096,0.008,1.318,0.512c0.223,0.506-0.007,1.096-0.512,1.318 c-25.374,11.176-56.47,15.566-56.781,15.609C540.001,426.738,539.954,426.741,539.909,426.741z"/></g><g><path fill="#ADCCDB" d="M589.197,432.834c-0.467,0-0.884-0.328-0.979-0.804c-0.108-0.541,0.242-1.068,0.784-1.177 c0.222-0.045,22.479-4.62,47.226-19.044c0.48-0.275,1.09-0.116,1.368,0.36c0.277,0.478,0.116,1.09-0.36,1.368 c-25.051,14.601-47.615,19.231-47.841,19.276C589.328,432.828,589.263,432.834,589.197,432.834z"/></g></g><g><path fill="#ADCCDB" d="M361.812,230.618c-0.273,0-0.546-0.111-0.744-0.331c-0.37-0.411-0.336-1.042,0.074-1.413 c0.241-0.217,24.208-21.991,31.867-44.328c0.179-0.523,0.746-0.802,1.27-0.622c0.522,0.179,0.801,0.748,0.622,1.27 c-7.829,22.832-32.175,44.945-32.419,45.166C362.289,230.533,362.05,230.618,361.812,230.618z"/></g><g><path fill="#ADCCDB" d="M381.57,226.723c-0.276,0-0.55-0.113-0.748-0.335c-0.367-0.413-0.33-1.045,0.083-1.412 c0.113-0.101,11.375-10.21,19.601-25.402c0.263-0.486,0.871-0.667,1.356-0.403s0.666,0.87,0.402,1.355 c-8.399,15.514-19.915,25.842-20.03,25.944C382.043,226.639,381.806,226.723,381.57,226.723z"/></g><g><path fill="#ADCCDB" d="M308.304,465.5c-0.007,0-0.012,0-0.015,0c-0.552-0.001-0.999-0.45-0.998-1.002s0.449-0.998,1-0.998 c0.002,0,0.009,0,0.017,0c1.293,0,66.119-0.178,104.929-18.9c0.497-0.238,1.096-0.031,1.335,0.466 c0.24,0.497,0.031,1.096-0.466,1.335C374.888,465.319,309.63,465.5,308.304,465.5z"/></g><g><path fill="#ADCCDB" d="M359.571,473.5c-0.517,0-0.955-0.398-0.996-0.923c-0.042-0.551,0.369-1.031,0.92-1.074 c0.256-0.02,25.878-2.082,45.855-9.934c0.513-0.201,1.095,0.05,1.297,0.564s-0.051,1.095-0.564,1.297 c-20.261,7.963-46.174,10.046-46.434,10.066C359.624,473.499,359.597,473.5,359.571,473.5z"/></g></g></switch></svg>